<?xml version="1.0" encoding="UTF-8"?>
<!DOCTYPE svg PUBLIC "-//W3C//DTD SVG 1.1//EN" "http://www.w3.org/Graphics/SVG/1.1/DTD/svg11.dtd">
<!-- Creator: CorelDRAW -->
<svg xmlns="http://www.w3.org/2000/svg" xml:space="preserve" width="99.277mm" height="99.277mm" version="1.1" style="shape-rendering:geometricPrecision; text-rendering:geometricPrecision; image-rendering:optimizeQuality; fill-rule:evenodd; clip-rule:evenodd"
viewBox="0 0 875.03 875.03"
 xmlns:xlink="http://www.w3.org/1999/xlink"
 xmlns:xodm="http://www.corel.com/coreldraw/odm/2003">
 <defs>
  <style type="text/css">
   <![CDATA[
    .fil0 {fill:#BDDE00}
    .fil1 {fill:yellow}
    .fil2 {fill:#099920;fill-rule:nonzero}
   ]]>
  </style>
 </defs>
 <g id="Слой_x0020_1">
  <metadata id="CorelCorpID_0Corel-Layer"/>
  <g id="_2461142756528">
   <path class="fil0" d="M437.52 0c241.63,0 437.52,195.88 437.52,437.52 0,241.63 -195.88,437.52 -437.52,437.52 -241.63,0 -437.52,-195.88 -437.52,-437.52 0,-241.63 195.88,-437.52 437.52,-437.52z"/>
   <path class="fil1" d="M437.52 28c226.17,0 409.51,183.35 409.51,409.51 0,226.17 -183.35,409.51 -409.51,409.51 -226.17,0 -409.51,-183.35 -409.51,-409.51 0,-226.17 183.35,-409.51 409.51,-409.51z"/>
   <g>
    <path id="path964" class="fil2" d="M761.66 531.38c17.83,-17.83 34.78,-40.07 48.85,-67.68l0 0c4.92,-9.87 9.32,-20.45 13.39,-31.69l0 0 0.54 -1.39c-0.66,-50.17 -10.7,-98.89 -30.17,-144.76l0 0 -10.63 -22.44 -21.11 -36.85c-14.33,-21.93 -31.02,-42.49 -49.6,-61.07l0 0c-18.55,-18.55 -38.39,-35.91 -60.27,-50.23l0 0c0,0 -37.06,-22.15 -37.12,-22.18l0 0 -26.61 -12.58c-34.28,-14.53 -73.13,-24.56 -109.99,-28.6l0 0c129.55,70.1 148.62,205.39 148.8,206.88l0 0 0.03 0.31c0,0 0.03,325.78 0.04,342.98l0 0c18.84,-3.13 80.25,-17.1 133.85,-70.7l0.01 -0zm0 0l0 0 0 0z"/>
   </g>
   <path id="path994" class="fil2" d="M419.32 811.25c8.71,4.04 18.07,7.91 27.86,11.35l0 0 0.78 0.36c50.24,-0.64 98.99,-10.77 144.79,-30.22l0 0 22.42 -10.53 36.91 -21.2c21.86,-14.26 42.33,-30.95 60.93,-49.54l0 0c18.6,-18.6 35.34,-39.13 49.63,-61.01l0 0 21.16 -36.87 10.56 -22.45c14.58,-34.36 21.97,-70.57 25.95,-107.37l0 0c-14.17,26.24 -30.59,48.23 -48.08,65.72l0 0c-68.85,68.85 -151.21,76.71 -152.32,76.79l0 0 -0.43 0.03c0,0 -325.8,-0.03 -342.98,-0.04l0 0c3.14,18.88 17.13,80.36 70.54,133.8l0 0c18.78,18.78 42.46,36.57 72.27,51.18z"/>
   <g>
    <path id="path964_0" class="fil2" d="M113.37 343.99c-17.83,17.83 -34.78,40.07 -48.85,67.68l0 0c-4.92,9.88 -9.32,20.45 -13.39,31.69l0 0 -0.54 1.39c0.66,50.17 10.7,98.89 30.16,144.76l0 0 10.63 22.44 21.11 36.85c14.33,21.93 31.02,42.49 49.6,61.07l0 0c18.55,18.55 38.39,35.91 60.27,50.23l0 0c0,0 37.06,22.15 37.12,22.18l0 0 26.61 12.58c34.28,14.53 73.13,24.56 109.99,28.6l0 0c-129.55,-70.1 -148.62,-205.39 -148.8,-206.88l0 0 -0.03 -0.31c0,0 -0.03,-325.77 -0.04,-342.98l0 0c-18.84,3.13 -80.25,17.1 -133.85,70.7l-0.01 0zm0 0l0 0 0 0z"/>
   </g>
   <path id="path994_1" class="fil2" d="M456.55 63.29c-8.71,-4.04 -18.07,-7.91 -27.86,-11.36l0 0 -0.78 -0.35c-50.24,0.64 -98.99,10.77 -144.79,30.22l0 0 -22.42 10.53 -36.91 21.2c-21.86,14.26 -42.33,30.95 -60.93,49.54l0 0c-18.6,18.6 -35.34,39.13 -49.63,61.01l0 0 -21.16 36.86 -10.56 22.45c-14.58,34.36 -21.97,70.57 -25.95,107.37l0 0c14.17,-26.24 30.59,-48.23 48.08,-65.72l0 0c68.85,-68.85 151.21,-76.71 152.32,-76.79l0 0 0.43 -0.03c0,0 325.8,0.03 342.98,0.04l0 0c-3.14,-18.88 -17.13,-80.36 -70.55,-133.8l0 0c-18.78,-18.78 -42.46,-36.57 -72.27,-51.18z"/>
   <polygon class="fil0" points="272.95,272.95 602.08,272.95 602.08,602.08 272.95,602.08 "/>
   <path class="fil2" d="M430.53 578.72l0 -282.4 18.12 0 0 282.4 -18.12 0zm43.6 -186.4c-0.72,-8.13 -3.99,-14.4 -9.79,-18.95 -5.75,-4.5 -13.98,-6.78 -24.65,-6.78 -7.04,0 -12.94,0.93 -17.66,2.74 -4.71,1.86 -8.23,4.4 -10.56,7.56 -2.38,3.21 -3.57,6.89 -3.68,10.98 -0.1,3.42 0.57,6.37 2.07,8.96 1.5,2.59 3.73,4.82 6.63,6.78 2.9,1.97 6.42,3.68 10.51,5.13 4.14,1.45 8.75,2.74 13.93,3.88l19.42 4.4c11.13,2.43 21.02,5.64 29.62,9.68 8.54,4.04 15.74,8.91 21.59,14.5 5.85,5.54 10.3,12.01 13.31,19.26 3,7.3 4.56,15.48 4.66,24.49 -0.1,14.29 -3.73,26.51 -10.82,36.76 -7.14,10.2 -17.4,18.07 -30.76,23.51 -13.31,5.44 -29.41,8.13 -48.26,8.13 -18.9,0 -35.36,-2.8 -49.4,-8.49 -14.08,-5.64 -25.01,-14.24 -32.78,-25.79 -7.82,-11.55 -11.81,-26.15 -12.01,-43.8l52.3 0c0.41,7.25 2.38,13.36 5.8,18.17 3.47,4.87 8.23,8.54 14.29,11.03 6.11,2.54 13.15,3.78 21.13,3.78 7.35,0 13.62,-0.98 18.85,-3 5.18,-1.97 9.16,-4.71 11.96,-8.23 2.8,-3.57 4.25,-7.61 4.3,-12.17 -0.05,-4.25 -1.4,-7.92 -3.99,-10.98 -2.59,-3.05 -6.52,-5.69 -11.86,-7.92 -5.33,-2.28 -12.12,-4.35 -20.35,-6.27l-23.61 -5.49c-19.57,-4.5 -34.95,-11.75 -46.24,-21.8 -11.24,-10.05 -16.83,-23.61 -16.78,-40.75 -0.05,-13.98 3.73,-26.25 11.29,-36.76 7.56,-10.51 18.02,-18.69 31.43,-24.59 13.41,-5.85 28.63,-8.8 45.77,-8.8 17.5,0 32.72,2.95 45.62,8.85 12.95,5.95 22.94,14.24 30.08,24.91 7.15,10.67 10.77,22.99 10.93,37.07l-52.3 0z"/>
  </g>
 </g>
</svg>
